# xmcd
#
# Track frame offsets:
#	150
#	9989
#	20617
#	31527
#	42827
#	53385
#	64575
#	73814
#	83055
#	93279
#	104289
#	114278
#	125018
#	136947
#	147992
#	160060
#	170780
#	182080
#	193827
#	204287
#	215011
#	225960
#
# Disc length: 3143 seconds
#
# Revision: 4
# Processed by: cddbd v1.5.2PL0 Copyright (c) Steve Scherf et al.
# Submitted via: EasyCDDAExtractor 10.0.2.1
#
DISCID=210c4516
DTITLE=George Jones - Don't Stop The Music
DYEAR=1987
DGENRE=Country
TTITLE0=Into My Arms Again
TTITLE1=Who Shot Sam
TTITLE2=You Gotta Be My Baby
TTITLE3=Mr. Fool
TTITLE4=Time Lock
TTITLE5=Candy Hearts
TTITLE6=What'cha Gonna Do
TTITLE7=Vitamins L-O-V-E
TTITLE8=Don't Stop The Music
TTITLE9=Accidentally On Purpose
TTITLE10=All I Want To Do
TTITLE11=Giveaway Girl
TTITLE12=Cup Of Loneliness
TTITLE13=A Wanderin' Soul
TTITLE14=My Sweet Imogene
TTITLE15=The Likes Of You
TTITLE16=What Am I Worth
TTITLE17=Boogie Woogie Mexican Boy
TTITLE18=I'm With The Wrong One
TTITLE19=With Half A Heart
TTITLE20=Ship Of Love
TTITLE21=The Honky Tonk Downstairs
EXTD=
EXTT0=
EXTT1=
EXTT2=
EXTT3=
EXTT4=
EXTT5=
EXTT6=
EXTT7=
EXTT8=
EXTT9=
EXTT10=
EXTT11=
EXTT12=
EXTT13=
EXTT14=
EXTT15=
EXTT16=
EXTT17=
EXTT18=
EXTT19=
EXTT20=
EXTT21=
PLAYORDER=
